# xmcd CD database file
#
# Track frame offsets:
#	150
#	14492
#	31477
#	43119
#	62666
#	82229
#	97564
#	111218
#	124228
#	139422
#	153564
#	169508
#	183852
#	198919
#	217024
#
# Disc length: 3093 seconds
#
# Revision: 0
# Processed by: cddbd v1.5.2PL0 Copyright (c) Steve Scherf et al.
# Submitted via: CDex 1.51
#
DISCID=d00c130f
DTITLE=Tião Carreiro and Pardinho - Som da Terra
DYEAR=1900
DGENRE=Country
TTITLE0=Oi Paixão
TTITLE1=Rio de Lagrimas
TTITLE2=Osso Duro de Roer
TTITLE3=Golpe do Mês
TTITLE4=Hoje Eu Não Posso Ir
TTITLE5=A Vaca Já Foi Pro Brejo
TTITLE6=Pagode em Brasília
TTITLE7=Homem Sem Rumo
TTITLE8=Felicidade
TTITLE9=Amargurado
TTITLE10=Rancho do Vale
TTITLE11=Cochilou o Cacgimbo Cai
TTITLE12=Pai João
TTITLE13=Boiadeiro de Palavra
TTITLE14=Estrela de Ouro
EXTD=
EXTT0=
EXTT1=
EXTT2=
EXTT3=
EXTT4=
EXTT5=
EXTT6=
EXTT7=
EXTT8=
EXTT9=
EXTT10=
EXTT11=
EXTT12=
EXTT13=
EXTT14=
PLAYORDER=
